<svg class="icon" width="64px" height="55.97px" viewBox="0 0 1171 1024" version="1.1" xmlns="http://www.w3.org/2000/svg"><path d="M1167.702661 928.910148H1000.058882V61.980425A61.980425 61.980425 0 0 0 938.078458 0H555.376657a62.011649 62.011649 0 0 0-62.011649 61.980425v307.560293a61.996037 61.996037 0 0 0-29.959807-7.525079h-237.305405a62.323893 62.323893 0 0 0-62.323893 62.323893v504.523779H3.329348a3.809376 3.809376 0 0 0-0.843058 0 2.903869 2.903869 0 0 0-2.451115 3.294174v88.458712a2.451115 2.451115 0 0 0 0 0.827446 2.919481 2.919481 0 0 0 3.294173 2.529176h1164.373313a3.668866 3.668866 0 0 0 0.827446 0 2.919481 2.919481 0 0 0 2.466728-3.294174V932.204321a3.668866 3.668866 0 0 0 0-0.827446 2.919481 2.919481 0 0 0-3.294174-2.466727z m-714.195594-154.467084H235.99793v-68.13163h217.509137z m0-205.23795H235.99793v-68.147243h217.509137z m474.470299 139.213966H565.399688v-68.13163h362.624515z m0-217.587198H565.399688v-68.116019h362.624515z m0-217.571587H565.399688v-68.100406h362.624515z"  /></svg>
