<?xml version="1.0" standalone="no"?><!DOCTYPE svg PUBLIC "-//W3C//DTD SVG 1.1//EN" "http://www.w3.org/Graphics/SVG/1.1/DTD/svg11.dtd"><svg t="1624255755123" class="icon" viewBox="0 0 1024 1024" version="1.1" xmlns="http://www.w3.org/2000/svg" p-id="16930" width="1000" height="1000" xmlns:xlink="http://www.w3.org/1999/xlink"><defs><style type="text/css"></style></defs><path d="M798.176671 256.319867a40.303207 40.303207 0 0 0 0 80.606414h219.215327V256.319867zM479.589416 505.81591a252.907955 252.907955 0 0 0 252.907955-252.907955 252.907955 252.907955 0 1 0-252.907955 252.907955zM307.287874 256.319867a170.595585 170.595585 0 1 1 170.595586 170.595585 170.595585 170.595585 0 0 1-170.595586-170.595585z" p-id="16931"></path><path d="M907.784334 800.519783a473.402749 473.402749 0 0 0-249.496043-249.922532 469.137859 469.137859 0 0 0-511.786756 100.651395A473.402749 473.402749 0 0 0 6.613156 981.351104v42.648896h938.275718v-42.648896a469.137859 469.137859 0 0 0-37.10454-180.831321z m-426.488963 134.344024H89.352014a394.075802 394.075802 0 0 1 386.82549-348.867972h7.250312L368.702285 802.225739z m6.397335-348.441483a393.649313 393.649313 0 0 1 374.883798 348.441483h-372.751353l112.593086-133.064557zM805.853472 474.255727a42.648896 42.648896 0 0 0 40.089963 40.089962h170.595585v-80.179925h-170.595585a42.648896 42.648896 0 0 0-40.089963 40.089963zM865.135438 653.381091a40.089963 40.089963 0 0 0 40.089963 40.089963h111.740108v-80.606414h-111.31362a42.648896 42.648896 0 0 0-40.516451 40.516451z" p-id="16932"></path></svg>