<svg class="icon" width="64px" height="64.00px" viewBox="0 0 1024 1024" version="1.1" xmlns="http://www.w3.org/2000/svg"><path d="M842.186 989.556l-644.748 0c-23.153 0-65.025-10.186-65.025-59.512l0-120.328-32.864 0c-17.447 0-31.589-13.055-31.589-29.142 0-16.125 14.142-29.142 31.589-29.142l32.913 0 0-119.572-32.913 0c-17.447 0-31.589-13.022-31.589-29.189 0-16.031 14.142-29.095 31.589-29.095l32.913 0 0-120.467-32.25 0c-17.444 0-31.594-13.019-31.594-29.186 0-16.085 14.149-29.142 31.594-29.142l32.25 0 0-119.768-35.271 0c-17.444 0-31.591-13.059-31.591-29.184 0-16.08 14.147-29.137 31.591-29.137l35.271 0 0-118.45c0-29.8 20.18-61.439 66.577-61.439l643.147 0c53.522 0 96.806 39.989 96.806 89.353l0 774.143c-0.051 49.317-43.335 89.259-96.805 89.259l0 0zM197.108 96.397c-0.094 0.522-0.142 1.136-0.142 1.842l0 118.45 31.31 0c17.444 0 31.586 13.013 31.586 29.137s-14.142 29.184-31.586 29.184l-31.31 0 0 119.814 34.327 0c17.449 0 31.594 13.061 31.594 29.137 0 16.132-14.144 29.189-31.594 29.189l-34.327 0 0 120.473 33.619 0c17.447 0 31.594 13.064 31.594 29.091 0 16.172-14.147 29.194-31.594 29.194l-33.619 0 0 119.573 33.619 0c17.447 0 31.594 13.017 31.594 29.142 0 16.073-14.147 29.142-31.594 29.142l-33.619 0 0 120.328 516.217 0 0-833.741-514.193 0c-0.75 0-1.364 0-1.882 0.042l0 0zM874.492 126.153c0-16.45-14.522-29.798-32.344-29.798l-64.505 0 0 833.74 64.505 0c17.822 0 32.344-13.341 32.344-29.798l0-774.143zM531.898 681.972l-57.023 0c-7.612 0-13.778-6.173-13.778-13.781l0-48.342c0-7.613-6.171-13.781-13.778-13.781l-70.031 0c-7.61 0-13.778-6.164-13.778-13.777l0-26.658c0-7.612 6.169-13.777 13.778-13.777l70.031 0c7.613 0 13.778-6.178 13.778-13.786l0 0c0-2.339-0.593-4.641-1.733-6.684l-5.175-9.314c-2.425-4.369-7.041-7.088-12.042-7.088l-63.211 0c-7.403 0-13.486-5.845-13.769-13.244l-1.108-28.833c-0.3-7.809 5.95-14.306 13.764-14.306l34.108 0c9.911 0 16.582-10.146 12.647-19.247l-29.617-75.719c-3.935-9.098 2.736-19.249 12.644-19.249l58.057 0c5.913 0 11.161 3.771 13.055 9.37l17.278 73.417c4.191 12.422 21.719 12.522 26.06 0.153l18.938-73.722c1.936-5.522 7.158-9.218 13.003-9.218l56.002 0c9.919 0 16.589 10.15 12.652 19.249l-29.62 75.719c-3.933 9.1 2.738 19.247 12.647 19.247l21.638 0c7.608 0 13.777 6.169 13.777 13.772l0 28.833c0 7.612-6.173 13.774-13.777 13.774l-62.691 0c-5.002 0-9.614 2.714-12.047 7.092l-5.17 9.314c-1.134 2.044-1.73 4.345-1.73 6.684l0 0c0 7.608 6.173 13.786 13.781 13.786l67.866 0c7.608 0 13.767 6.164 13.767 13.777l0 26.658c0 7.612-6.159 13.777-13.767 13.777l-67.866 0c-7.608 0-13.781 6.169-13.781 13.777l0 48.347c-0.004 7.607-6.168 13.78-13.776 13.78z" /></svg>
